<svg width="104" height="28" viewBox="0 0 104 28" fill="none" xmlns="http://www.w3.org/2000/svg">
<path d="M14.077 27.9826C21.8514 27.9826 28.1539 21.7185 28.1539 13.9913C28.1539 6.26412 21.8514 0 14.077 0C6.30246 0 0 6.26412 0 13.9913C0 21.7185 6.30246 27.9826 14.077 27.9826Z" fill="#5F259F"/>
<path d="M71.2074 21.9964V16.915C71.2074 15.662 70.7347 15.0356 69.5616 15.0356C69.0889 15.0356 68.5461 15.1052 68.2309 15.1922V22.6229C68.2309 22.8491 68.0033 23.0927 67.7582 23.0927H65.9548C65.7272 23.0927 65.4821 22.8665 65.4821 22.6229V13.9392C65.4821 13.626 65.7097 13.3998 65.9548 13.3128C67.1279 12.9299 68.3185 12.6863 69.5791 12.6863C72.4155 12.6863 73.9913 14.1655 73.9913 16.915V22.6925C73.9913 22.9187 73.7637 23.1623 73.5185 23.1623H72.4155C71.6801 23.1623 71.2074 22.6229 71.2074 21.9964ZM78.2809 18.951L78.2109 19.6471C78.2109 20.5868 78.8412 21.1263 79.8567 21.1263C80.6446 21.1263 81.3449 20.9001 82.1328 20.4998C82.2028 20.4998 82.2904 20.4302 82.3604 20.4302C82.518 20.4302 82.588 20.4998 82.6756 20.5868C82.7456 20.6564 82.9032 20.9001 82.9032 20.9001C83.0608 21.1263 83.2183 21.4395 83.2183 21.6832C83.2183 22.066 82.9907 22.4663 82.6756 22.6229C81.8176 23.0927 80.7846 23.319 79.6816 23.319C78.421 23.319 77.4055 23.0057 76.6176 22.3793C75.8297 21.6832 75.3569 20.7435 75.3569 19.5601V16.5147C75.3569 14.0958 76.9327 12.5993 79.6115 12.5993C82.2028 12.5993 83.7086 14.0088 83.7086 16.5147V18.3942C83.7086 18.6204 83.481 18.864 83.2358 18.864H78.2809V18.951ZM78.2109 17.2282H81.2048V16.4451C81.2048 15.5054 80.6621 14.8789 79.7166 14.8789C78.7711 14.8789 78.2284 15.4184 78.2284 16.4451C78.2109 16.4451 78.2109 17.2282 78.2109 17.2282ZM98.2583 18.951L98.1882 19.6471C98.1882 20.5868 98.8185 21.1263 99.834 21.1263C100.622 21.1263 101.322 20.9001 102.11 20.4998C102.18 20.4998 102.268 20.4302 102.338 20.4302C102.495 20.4302 102.565 20.4998 102.653 20.5868C102.723 20.6564 102.881 20.9001 102.881 20.9001C103.038 21.1263 103.196 21.4395 103.196 21.6832C103.196 22.066 102.968 22.4663 102.653 22.6229C101.795 23.0927 100.762 23.319 99.659 23.319C98.3983 23.319 97.3828 23.0057 96.5949 22.3793C95.807 21.6832 95.3343 20.7435 95.3343 19.5601V16.5147C95.3343 14.0958 96.9101 12.5993 99.5889 12.5993C102.18 12.5993 103.686 14.0088 103.686 16.5147V18.3942C103.686 18.6204 103.458 18.864 103.213 18.864H98.2583V18.951ZM98.1882 17.2282H101.182V16.4451C101.182 15.5054 100.639 14.8789 99.694 14.8789C98.7485 14.8789 98.2057 15.4184 98.2057 16.4451V17.2282H98.1882ZM51.9304 23.1623H53.0334C53.261 23.1623 53.5062 22.9361 53.5062 22.6925V16.915C53.5062 14.2525 52.088 12.6863 49.7243 12.6863C49.0239 12.6863 48.2361 12.8429 47.7633 12.9995V10.1108C47.7633 9.48429 47.2206 8.94482 46.5902 8.94482H45.4872C45.2596 8.94482 45.0145 9.17105 45.0145 9.41468V22.7099C45.0145 22.9361 45.2421 23.1798 45.4872 23.1798H47.2906C47.5182 23.1798 47.7633 22.9535 47.7633 22.7099V15.3488C48.1485 15.1922 48.7088 15.1226 49.094 15.1226C50.2671 15.1226 50.7398 15.662 50.7398 17.002V22.0834C50.8273 22.6229 51.3001 23.1623 51.9304 23.1623ZM63.8012 16.6018V19.4905C63.8012 21.9094 62.1554 23.406 59.3891 23.406C56.7102 23.406 54.9769 21.9268 54.9769 19.4905V16.6018C54.9769 14.1829 56.6227 12.6863 59.3891 12.6863C62.1554 12.6863 63.8012 14.1829 63.8012 16.6018ZM61.0524 16.6018C61.0524 15.662 60.5096 15.0356 59.4766 15.0356C58.4436 15.0356 57.9008 15.575 57.9008 16.6018V19.4905C57.9008 20.4302 58.4436 20.9697 59.4766 20.9697C60.5096 20.9697 61.0524 20.4302 61.0524 19.4905V16.6018ZM43.5087 15.2792C43.5087 17.7677 41.6178 19.4905 39.114 19.4905C38.4837 19.4905 37.941 19.4209 37.3807 19.1773V22.6925C37.3807 22.9187 37.1531 23.1623 36.908 23.1623H35.1046C34.877 23.1623 34.6318 22.9361 34.6318 22.6925V10.2674C34.6318 9.95415 34.8594 9.72792 35.1046 9.64091C36.2776 9.25806 37.4682 9.01443 38.7289 9.01443C41.5653 9.01443 43.5262 10.7372 43.5262 13.3998C43.5087 13.3998 43.5087 15.2792 43.5087 15.2792ZM40.6898 13.2431C40.6898 11.9902 39.8319 11.3637 38.6413 11.3637C37.941 11.3637 37.4682 11.5899 37.4682 11.5899V16.7584C37.941 16.9846 38.1686 17.0716 38.7289 17.0716C39.9019 17.0716 40.7774 16.3755 40.7774 15.1922V13.2431H40.6898ZM94.3363 15.2792C94.3363 17.7851 92.4454 19.5079 89.9241 19.5079C89.2938 19.5079 88.7511 19.4383 88.1908 19.1947V22.7099C88.1908 22.9361 87.9632 23.1798 87.718 23.1798H85.9147C85.687 23.1798 85.4419 22.9535 85.4419 22.7099V10.2674C85.4419 9.95415 85.6695 9.72792 85.9147 9.64091C87.0877 9.25806 88.2783 9.01443 89.539 9.01443C92.3754 9.01443 94.3363 10.7372 94.3363 13.3998V15.2792ZM91.4999 13.2431C91.4999 11.9902 90.642 11.3637 89.4514 11.3637C88.7511 11.3637 88.2783 11.5899 88.2783 11.5899V16.7584C88.7511 16.9846 88.9787 17.0716 89.539 17.0716C90.712 17.0716 91.5875 16.3755 91.5875 15.1922V13.2431H91.4999Z" fill="#5F259F"/>
<path d="M20.4676 10.3372C20.4676 9.79776 19.9948 9.3279 19.4521 9.3279H17.5611L13.2365 4.4031C12.8513 3.93324 12.221 3.77662 11.5907 3.93324L10.1024 4.4031C9.87483 4.47271 9.78729 4.78595 9.94487 4.94257L14.6722 9.39751H7.51117C7.28355 9.39751 7.12598 9.55413 7.12598 9.78036V10.5635C7.12598 11.1029 7.59871 11.5728 8.14148 11.5728H9.24452V15.349C9.24452 18.1682 10.7328 19.804 13.254 19.804C14.0419 19.804 14.6722 19.7344 15.4601 19.4211V21.927C15.4601 22.6231 16.0029 23.18 16.7207 23.18H17.8238C18.0514 23.18 18.2965 22.9538 18.2965 22.7101V11.538H20.0999C20.3275 11.538 20.4851 11.3813 20.4851 11.1551C20.4676 11.1203 20.4676 10.3372 20.4676 10.3372ZM15.4251 17.0718C14.9523 17.2981 14.322 17.3851 13.8493 17.3851C12.5887 17.3851 11.9584 16.7586 11.9584 15.349V11.5902H15.4251V17.0718Z" fill="white"/>
</svg>
