<svg width="384" height="32" viewBox="0 0 384 32" fill="none" xmlns="http://www.w3.org/2000/svg">
<g clip-path="url(#clip0_397_10852)">
<path d="M9.59995 16C9.59995 15.5581 9.95812 15.2 10.4 15.2H15.2V10.4C15.2 9.95812 15.5581 9.59995 16 9.59995C16.4418 9.59995 16.8 9.95812 16.8 10.4V15.2H21.6C22.0418 15.2 22.4 15.5581 22.4 16C22.4 16.4418 22.0418 16.8 21.6 16.8H16.8V21.6C16.8 22.0418 16.4418 22.4 16 22.4C15.5581 22.4 15.2 22.0418 15.2 21.6V16.8H10.4C9.95812 16.8 9.59995 16.4418 9.59995 16ZM16 28.8C23.0692 28.8 28.8 23.0692 28.8 16C28.8 8.93071 23.0692 3.19995 16 3.19995C8.93071 3.19995 3.19995 8.93071 3.19995 16C3.19995 23.0692 8.93071 28.8 16 28.8ZM16 27.2C9.81436 27.2 4.79995 22.1855 4.79995 16C4.79995 9.81436 9.81436 4.79995 16 4.79995C22.1855 4.79995 27.2 9.81436 27.2 16C27.2 22.1855 22.1855 27.2 16 27.2Z" fill="white"/>
</g>
<g clip-path="url(#clip1_397_10852)">
<path d="M68.8 16C68.8 23.0692 63.0692 28.8 56 28.8C48.9307 28.8 43.2 23.0692 43.2 16C43.2 8.93071 48.9307 3.19995 56 3.19995C63.0692 3.19995 68.8 8.93071 68.8 16ZM49.6 16C49.6 16.4418 49.9581 16.8 50.4 16.8H55.2V21.6C55.2 22.0418 55.5581 22.4 56 22.4C56.4418 22.4 56.8 22.0418 56.8 21.6V16.8H61.6C62.0418 16.8 62.4 16.4418 62.4 16C62.4 15.5581 62.0418 15.2 61.6 15.2H56.8V10.4C56.8 9.95812 56.4418 9.59995 56 9.59995C55.5581 9.59995 55.2 9.95812 55.2 10.4V15.2H50.4C49.9581 15.2 49.6 15.5581 49.6 16Z" fill="white"/>
</g>
<path d="M89.9998 7.63818C87.6908 7.63818 85.819 9.51 85.819 11.819C85.819 14.128 87.6908 15.9998 89.9998 15.9998C92.3088 15.9998 94.1806 14.128 94.1806 11.819C94.1806 9.51 92.3088 7.63818 89.9998 7.63818ZM84.7829 17.045C83.6273 17.045 82.6833 17.972 82.6833 19.1355C82.6833 20.9031 83.5538 22.2358 84.9149 23.1037C86.2548 23.958 88.0612 24.3615 89.9998 24.3615C91.9384 24.3615 93.7448 23.958 95.0847 23.1037C96.4458 22.2358 97.3162 20.9031 97.3162 19.1355C97.3162 17.9811 96.3803 17.045 95.2259 17.045L84.7829 17.045Z" fill="white"/>
<path d="M118 7.63818C115.691 7.63818 113.819 9.51 113.819 11.819C113.819 14.128 115.691 15.9998 118 15.9998C120.309 15.9998 122.181 14.128 122.181 11.819C122.181 9.51 120.309 7.63818 118 7.63818ZM112.783 17.045C111.627 17.045 110.683 17.972 110.683 19.1355C110.683 20.9031 111.554 22.2358 112.915 23.1037C114.255 23.958 116.061 24.3615 118 24.3615C119.938 24.3615 121.745 23.958 123.085 23.1037C124.446 22.2358 125.316 20.9031 125.316 19.1355C125.316 17.9811 124.38 17.045 123.226 17.045L112.783 17.045Z" fill="#6020A7"/>
<path d="M144.952 8.03987C145.548 7.50429 146.452 7.50429 147.048 8.03987L152.796 13.2063C153.127 13.5037 153.316 13.9278 153.316 14.3729V21.748C153.316 22.6141 152.614 23.3163 151.748 23.3163H140.251C139.385 23.3163 138.683 22.6141 138.683 21.748V14.3729C138.683 13.9278 138.872 13.5037 139.203 13.2063L144.952 8.03987ZM149.505 14.799C149.709 14.5949 149.709 14.2639 149.505 14.0597C149.301 13.8556 148.97 13.8556 148.766 14.0597L144.955 17.8721L143.234 16.1508C143.03 15.9466 142.699 15.9466 142.495 16.1508C142.291 16.3549 142.291 16.6859 142.495 16.89L144.585 18.9811C144.789 19.1852 145.12 19.1852 145.324 18.9811L149.505 14.799Z" fill="white"/>
<path d="M172.952 8.03987C173.548 7.50429 174.452 7.50429 175.048 8.03987L180.796 13.2063C181.127 13.5037 181.316 13.9278 181.316 14.3729V21.748C181.316 22.6141 180.614 23.3163 179.748 23.3163H168.251C167.385 23.3163 166.683 22.6141 166.683 21.748V14.3729C166.683 13.9278 166.872 13.5037 167.203 13.2063L172.952 8.03987ZM177.505 14.799C177.709 14.5949 177.709 14.2639 177.505 14.0597C177.301 13.8556 176.97 13.8556 176.766 14.0597L172.955 17.8721L171.234 16.1508C171.03 15.9466 170.699 15.9466 170.495 16.1508C170.291 16.3549 170.291 16.6859 170.495 16.89L172.585 18.9811C172.789 19.1852 173.12 19.1852 173.324 18.9811L177.505 14.799Z" fill="#6020A7"/>
<path d="M195.729 9.20599C195.729 8.34012 196.431 7.63818 197.297 7.63818H206.703C207.569 7.63818 208.271 8.34012 208.271 9.20599V22.7937C208.271 23.6595 207.569 24.3615 206.703 24.3615H197.297C196.431 24.3615 195.729 23.6595 195.729 22.7937V9.20599ZM197.819 12.3416C197.819 12.6302 198.053 12.8642 198.342 12.8642H205.658C205.947 12.8642 206.181 12.6302 206.181 12.3416C206.181 12.053 205.947 11.819 205.658 11.819H198.342C198.053 11.819 197.819 12.053 197.819 12.3416ZM198.342 13.9094C198.053 13.9094 197.819 14.1434 197.819 14.432C197.819 14.7206 198.053 14.9546 198.342 14.9546H205.658C205.947 14.9546 206.181 14.7206 206.181 14.432C206.181 14.1434 205.947 13.9094 205.658 13.9094H198.342ZM197.819 16.5224C197.819 16.8111 198.053 17.045 198.342 17.045H202.523C202.811 17.045 203.045 16.8111 203.045 16.5224C203.045 16.2338 202.811 15.9998 202.523 15.9998H198.342C198.053 15.9998 197.819 16.2338 197.819 16.5224Z" fill="white"/>
<path d="M223.729 9.20599C223.729 8.34012 224.431 7.63818 225.297 7.63818H234.703C235.569 7.63818 236.271 8.34012 236.271 9.20599V22.7937C236.271 23.6595 235.569 24.3615 234.703 24.3615H225.297C224.431 24.3615 223.729 23.6595 223.729 22.7937V9.20599ZM225.819 12.3416C225.819 12.6302 226.053 12.8642 226.342 12.8642H233.658C233.947 12.8642 234.181 12.6302 234.181 12.3416C234.181 12.053 233.947 11.819 233.658 11.819H226.342C226.053 11.819 225.819 12.053 225.819 12.3416ZM226.342 13.9094C226.053 13.9094 225.819 14.1434 225.819 14.432C225.819 14.7206 226.053 14.9546 226.342 14.9546H233.658C233.947 14.9546 234.181 14.7206 234.181 14.432C234.181 14.1434 233.947 13.9094 233.658 13.9094H226.342ZM225.819 16.5224C225.819 16.8111 226.053 17.045 226.342 17.045H230.523C230.811 17.045 231.045 16.8111 231.045 16.5224C231.045 16.2338 230.811 15.9998 230.523 15.9998H226.342C226.053 15.9998 225.819 16.2338 225.819 16.5224Z" fill="#6020A7"/>
<path d="M256 9.72876C253.402 9.72876 251.296 11.8346 251.296 14.4322V16.9421L250.288 19.4643C250.224 19.6253 250.244 19.8077 250.341 19.9513C250.438 20.0948 250.6 20.1808 250.774 20.1808H261.226C261.399 20.1808 261.561 20.0948 261.658 19.9513C261.756 19.8077 261.775 19.6253 261.711 19.4643L260.703 16.9421V14.9548C259.26 14.9548 258.09 13.7849 258.09 12.3418C258.09 11.6785 258.337 11.073 258.744 10.6122C257.972 10.0562 257.024 9.72876 256 9.72876ZM256 22.7938C255.026 22.7938 254.207 22.1276 253.975 21.226H258.024C257.792 22.1276 256.974 22.7938 256 22.7938ZM260.703 13.9096C261.569 13.9096 262.271 13.2077 262.271 12.3418C262.271 11.4759 261.569 10.774 260.703 10.774C259.837 10.774 259.135 11.4759 259.135 12.3418C259.135 13.2077 259.837 13.9096 260.703 13.9096Z" fill="white"/>
<path d="M280 9.72876C277.402 9.72876 275.296 11.8346 275.296 14.4322V16.9421L274.288 19.4643C274.224 19.6253 274.244 19.8077 274.341 19.9513C274.438 20.0948 274.6 20.1808 274.774 20.1808H285.226C285.399 20.1808 285.561 20.0948 285.658 19.9513C285.756 19.8077 285.775 19.6253 285.711 19.4643L284.703 16.9421V14.9548C283.26 14.9548 282.09 13.7849 282.09 12.3418C282.09 11.6785 282.337 11.073 282.744 10.6122C281.972 10.0562 281.024 9.72876 280 9.72876ZM280 22.7938C279.026 22.7938 278.207 22.1276 277.975 21.226H282.024C281.792 22.1276 280.974 22.7938 280 22.7938ZM284.703 13.9096C285.569 13.9096 286.271 13.2077 286.271 12.3418C286.271 11.4759 285.569 10.774 284.703 10.774C283.837 10.774 283.135 11.4759 283.135 12.3418C283.135 13.2077 283.837 13.9096 284.703 13.9096Z" fill="#6020A7"/>
<path d="M297.808 13.9967C298.091 13.1225 298.556 12.3201 299.171 11.64C299.275 11.525 299.438 11.4841 299.584 11.5362L301.052 12.0612C301.45 12.2035 301.888 11.9961 302.03 11.598C302.044 11.5589 302.055 11.5187 302.062 11.4779L302.342 9.94245C302.37 9.78979 302.487 9.66904 302.639 9.63673C303.083 9.54221 303.538 9.49414 304 9.49414C304.461 9.49414 304.916 9.54215 305.36 9.63656C305.511 9.66884 305.628 9.78952 305.656 9.94212L305.937 11.4778C306.013 11.8936 306.411 12.1693 306.827 12.0934C306.868 12.086 306.908 12.0752 306.947 12.0613L308.416 11.5362C308.562 11.4841 308.725 11.525 308.829 11.64C309.443 12.3201 309.909 13.1225 310.191 13.9967C310.239 14.1442 310.193 14.3059 310.075 14.4062L308.885 15.4166C308.562 15.6902 308.523 16.1732 308.797 16.4955C308.824 16.5271 308.853 16.5566 308.885 16.5835L310.075 17.5939C310.193 17.6942 310.239 17.8559 310.191 18.0034C309.909 18.8775 309.443 19.68 308.829 20.36C308.725 20.475 308.562 20.516 308.416 20.4638L306.947 19.9388C306.549 19.7966 306.111 20.004 305.969 20.402C305.955 20.4412 305.944 20.4814 305.937 20.5224L305.656 22.058C305.628 22.2106 305.511 22.3312 305.36 22.3635C304.916 22.4579 304.461 22.5059 304 22.5059C303.538 22.5059 303.083 22.4579 302.639 22.3633C302.487 22.331 302.37 22.2103 302.342 22.0576L302.062 20.5223C301.987 20.1064 301.588 19.8308 301.172 19.9066C301.131 19.9141 301.091 19.9249 301.052 19.9388L299.584 20.4638C299.438 20.516 299.275 20.475 299.171 20.36C298.556 19.68 298.091 18.8775 297.808 18.0034C297.76 17.8559 297.806 17.6942 297.925 17.5939L299.115 16.5835C299.437 16.3099 299.476 15.8269 299.203 15.5046C299.176 15.4729 299.146 15.4435 299.115 15.4166L297.925 14.4062C297.806 14.3059 297.76 14.1442 297.808 13.9967ZM302.469 16C302.469 16.8455 303.154 17.5308 304 17.5308C304.845 17.5308 305.53 16.8455 305.53 16C305.53 15.1546 304.845 14.4692 304 14.4692C303.154 14.4692 302.469 15.1546 302.469 16Z" fill="white"/>
<path d="M321.808 13.9967C322.091 13.1225 322.556 12.3201 323.171 11.64C323.275 11.525 323.438 11.4841 323.584 11.5362L325.052 12.0612C325.45 12.2035 325.888 11.9961 326.03 11.598C326.044 11.5589 326.055 11.5187 326.062 11.4779L326.342 9.94245C326.37 9.78979 326.487 9.66904 326.639 9.63673C327.083 9.54221 327.538 9.49414 328 9.49414C328.461 9.49414 328.916 9.54215 329.36 9.63656C329.511 9.66884 329.628 9.78952 329.656 9.94212L329.937 11.4778C330.013 11.8936 330.411 12.1693 330.827 12.0934C330.868 12.086 330.908 12.0752 330.947 12.0613L332.416 11.5362C332.562 11.4841 332.725 11.525 332.829 11.64C333.443 12.3201 333.909 13.1225 334.191 13.9967C334.239 14.1442 334.193 14.3059 334.075 14.4062L332.885 15.4166C332.562 15.6902 332.523 16.1732 332.797 16.4955C332.824 16.5271 332.853 16.5566 332.885 16.5835L334.075 17.5939C334.193 17.6942 334.239 17.8559 334.191 18.0034C333.909 18.8775 333.443 19.68 332.829 20.36C332.725 20.475 332.562 20.516 332.416 20.4638L330.947 19.9388C330.549 19.7966 330.111 20.004 329.969 20.402C329.955 20.4412 329.944 20.4814 329.937 20.5224L329.656 22.058C329.628 22.2106 329.511 22.3312 329.36 22.3635C328.916 22.4579 328.461 22.5059 328 22.5059C327.538 22.5059 327.083 22.4579 326.639 22.3633C326.487 22.331 326.37 22.2103 326.342 22.0576L326.062 20.5223C325.987 20.1064 325.588 19.8308 325.172 19.9066C325.131 19.9141 325.091 19.9249 325.052 19.9388L323.584 20.4638C323.438 20.516 323.275 20.475 323.171 20.36C322.556 19.68 322.091 18.8775 321.808 18.0034C321.76 17.8559 321.806 17.6942 321.925 17.5939L323.115 16.5835C323.437 16.3099 323.476 15.8269 323.203 15.5046C323.176 15.4729 323.146 15.4435 323.115 15.4166L321.925 14.4062C321.806 14.3059 321.76 14.1442 321.808 13.9967ZM326.469 16C326.469 16.8455 327.154 17.5308 328 17.5308C328.845 17.5308 329.53 16.8455 329.53 16C329.53 15.1546 328.845 14.4692 328 14.4692C327.154 14.4692 326.469 15.1546 326.469 16Z" fill="#6020A7"/>
<g clip-path="url(#clip2_397_10852)">
<path d="M352 8.66675V10.0001M352 22.0001V23.3334M346.813 10.8134L347.76 11.7601M356.24 20.2401L357.187 21.1867M344.667 16.0001H346M358 16.0001H359.333M346.813 21.1867L347.76 20.2401M356.24 11.7601L357.187 10.8134M355.333 16.0001C355.333 17.841 353.841 19.3334 352 19.3334C350.159 19.3334 348.667 17.841 348.667 16.0001C348.667 14.1591 350.159 12.6667 352 12.6667C353.841 12.6667 355.333 14.1591 355.333 16.0001Z" stroke="white" stroke-width="1.5" stroke-linecap="round" stroke-linejoin="round"/>
</g>
<g clip-path="url(#clip3_397_10852)">
<path d="M376 8.66675V10.0001M376 22.0001V23.3334M370.813 10.8134L371.76 11.7601M380.24 20.2401L381.187 21.1867M368.667 16.0001H370M382 16.0001H383.333M370.813 21.1867L371.76 20.2401M380.24 11.7601L381.187 10.8134M379.333 16.0001C379.333 17.841 377.841 19.3334 376 19.3334C374.159 19.3334 372.667 17.841 372.667 16.0001C372.667 14.1591 374.159 12.6667 376 12.6667C377.841 12.6667 379.333 14.1591 379.333 16.0001Z" stroke="#6020A7" stroke-width="1.5" stroke-linecap="round" stroke-linejoin="round"/>
</g>
<defs>
<clipPath id="clip0_397_10852">
<rect width="32" height="32" rx="3.2" fill="white"/>
</clipPath>
<clipPath id="clip1_397_10852">
<rect x="40" width="32" height="32" rx="3.2" fill="white"/>
</clipPath>
<clipPath id="clip2_397_10852">
<rect width="16" height="16" fill="white" transform="translate(344 8)"/>
</clipPath>
<clipPath id="clip3_397_10852">
<rect width="16" height="16" fill="white" transform="translate(368 8)"/>
</clipPath>
</defs>
</svg>
